<?xml version="1.0" encoding="utf-8"?>
<!-- Generator: Adobe Illustrator 21.0.1, SVG Export Plug-In . SVG Version: 6.00 Build 0)  -->
<svg version="1.0" id="Layer_1" xmlns="http://www.w3.org/2000/svg" xmlns:xlink="http://www.w3.org/1999/xlink" x="0px" y="0px"
	 viewBox="0 0 945.815 397.02" enable-background="new 0 0 945.815 397.02" xml:space="preserve">
<g>
	<path fill="#F0C782" d="M366.071,206.097c0,98.1-79.526,177.625-177.625,177.625S10.82,304.197,10.82,206.097
		c0-98.1,79.526-177.626,177.625-177.626S366.071,107.997,366.071,206.097"/>
	<path fill="#F6F7F2" d="M895.364,185.71c-11.906,0-13.427-11.919-13.427-17.62c0-8.479,7.885-19.13,18.894-10.656
		c-0.004,5.689,1.076,11.402,4.61,14.937c2.165,2.165,7.285,1.314,9.25-0.818c0.46-0.499,0.714-1.146,0.717-1.824
		c0.054-11.207,0.949-24.854,2.728-29.239c0.479-1.182,0.119-2.546-0.942-3.252c-2.771-1.846-8.601-2.892-13.587,2.095
		c0,0-1.375,4.473-2.19,10.287c-3.857-2.785-11.545-6.609-16.059-6.609c-9.518,0-15.988,5.901-19.194,13.357
		c-0.012-1.478-0.021-2.634-0.021-3.362c0-7.482-10.175-9.55-16.759-9.55c-3.578,0-21.058,20.716-31.123,36.439
		c0-14.354,0-26.905,0-29.342c0-5.745-18.518-10.154-25.737-2.934c2.984,2.984,2.713,32.152,2.253,54.361
		c-8.525,13.005-25.006,29.582-35.471,29.582c-6.243-6.242-9.105-12.827-9.725-19.357c23.346-1.136,39.65-20.029,39.65-49.324
		c0-11.748-7.846-13.521-12.681-11.72c-2.551-3.987-6.77-7.433-11.858-7.433c-20.377,0-32.501,18.45-36.264,39.344
		c0-15.792,0-32.4,0-46.156c33.04-9.617,76.117-19.413,107.031-19.413c12.468,0,11.664-12.551,11.664-19.145
		c0-6.594-3.218-13.833-6.838-13.833c-21.163,0-71.909,15.144-111.857,31.866c0-5.584,0-9.286,0-10.257
		c0-6.229-18.02-11.567-23.136-6.451c0,0,0,11.333,0,27.208c-7.282,3.626-13.661,7.194-18.747,10.568
		c-0.082-0.071-0.139-0.161-0.23-0.223c-2.771-1.846-8.6-2.892-13.587,2.095c0,0-1.374,4.473-2.19,10.287
		c-3.857-2.785-11.545-6.609-16.058-6.609c-12.217,0-19.424,9.71-21.129,19.97c-1.835-6.642-4.64-12.293-8.465-16.119
		c-15.812-15.812-39.197,12.516-45.829,26.808c0-10.556,0-18.151,0-19.825c0-6.71-21.004-14.586-25.963-9.627
		c2.052,2.051,2.44,33.995,2.342,65.447c-8.16,9.409-18.031,17.256-19.085,16.202c-1.826-1.826,2.662-65.342,2.662-74.471
		c0-9.127-19.245-11.029-22.973-7.302c-3.156,3.157-5.933,59.408-5.933,71.731c0,1.513,0.124,2.965,0.353,4.355
		c-3.288,3.64-6.625,6.284-9.474,6.284c-9.342,0,2.002-64.726,2.002-70.731s-4.227-11.121-12.679-11.121
		c-6.683,0-25.153,17.746-36.699,34.243c0-33.574,0-69.375,0-72.722c0-6.228-18.017-11.566-23.133-6.45c0,0,0,110.544,0,125.002
		c0,14.457,23.133,21.352,23.133,13.79c0-2.973,0-23.101,0-46.811c8.399-12.139,21.9-25.032,25.356-25.032
		c0,6.45-3.559,50.045-3.559,55.383c0,5.339,14.457,19.796,20.018,19.796c2.714,0,10.509-6.357,17.783-13.642
		c4.745,8.679,13.962,13.432,20.632,13.432c4.865,0,13.925-7.897,21.504-15.479c-0.173,22.523-0.501,41.816-0.501,45.428
		c0,9.335,13.783,12.689,19.035,12.689c3.684,0,5.178-9.043,5.178-15.461c0-2.688,0-22.115,0-44.276
		c4.571,5.275,13.876,13.198,28.551,13.198c19.448,0,29.561-31.131,28.278-57.965c3.619,6.352,11.523,12.222,28.491,12.649
		c1.467,0.037,2.818,0.805,3.606,2.042c7.519,11.783,3.261,41.366-9.831,41.366c-13.934,0-5.447-27.169-0.887-31.729
		c1.837-1.837-10.64-8.994-16.848-2.787c-4.749,4.75-10.286,40.534,18.066,40.534c21.737,0,31.169-15.073,31.169-34.2
		c0-12.034-7.477-21.902-25.167-21.902c-11.907,0-13.427-11.919-13.427-17.62c0-8.479,7.884-19.13,18.893-10.656
		c-0.003,5.689,1.076,11.402,4.611,14.937c2.164,2.165,7.285,1.314,9.249-0.818c0.46-0.499,0.714-1.146,0.717-1.824
		c0.028-5.958,0.298-12.596,0.809-18.176c4.489-1.957,11.389-4.542,19.954-7.417c0,32.5,0,72.29,0,80.57
		c0,14.46,23.136,21.355,23.136,13.792c0-2.104,0-12.8,0-27.271c3.232,17.03,12.647,30.586,28.333,30.586
		c12.319,0,28.089-13.297,37.664-24.161c-0.064,3.015-0.106,5.485-0.106,7.178c0,13.168,13.766,16.983,17.656,16.983
		s6.285-5.013,6.285-14.29c0-4.309,0-19.979,0-36.104c6.938-11.631,19.808-27.639,23.043-27.639c0,7.781-1.796,30.525-1.796,36.509
		c0,5.986,14.664,11.971,23.643,11.971c2.26,0,2.902-17.48,3.046-33.594c3.33,6.748,11.139,13.27,29.06,13.721
		c1.466,0.037,2.817,0.805,3.606,2.042c7.518,11.783,3.26,41.366-9.831,41.366c-13.934,0-5.447-27.169-0.887-31.729
		c1.836-1.837-10.641-8.994-16.848-2.787c-4.75,4.75-10.286,40.534,18.066,40.534c21.737,0,31.168-15.073,31.168-34.2
		C920.531,195.578,913.055,185.71,895.364,185.71z M603.158,228.016c-11.668,0-19.849-9.783-24.101-16.526
		c0-7.331,0-14.662,0-21.529c4.329-12.596,18.737-33.491,30.384-33.491C625.732,156.47,616.981,228.016,603.158,228.016z
		 M776.734,163.475c2.105,13.469-12.09,38.137-27.089,42.431C751.802,186.511,770.99,168.775,776.734,163.475z"/>
	<path fill="#3F3F3F" d="M924.795,181.908c0.183-0.182,0.36-0.367,0.534-0.557c2.911-3.159,4.523-7.267,4.541-11.553
		c0.058-12.043,1.049-21.643,1.757-24.094c2.912-7.479,0.24-16.065-6.414-20.503c-3.83-2.551-8.593-3.956-13.411-3.956
		c-6.81,0-13.352,2.791-18.421,7.858l-0.556,0.557c-2.511-0.687-5.049-1.113-7.468-1.113c-6.314,0-12.197,1.592-17.314,4.551
		c-5.035-2.639-11.383-4.104-18.659-4.104c-0.466,0-0.925,0.017-1.379,0.054c2.427-1.277,4.304-2.801,5.701-4.208
		c7.995-8.046,7.924-19.359,7.886-25.437l-0.005-1.043c0-13.909-7.968-28.296-21.301-28.296c-21.523,0-64.417,12.502-100.293,26.152
		c-5.687-8.85-18.574-13.042-28.025-13.042c-8.774,0-14.034,3.417-16.9,6.282l-4.237,4.237v24.414
		c-2.142,1.161-4.168,2.307-6.078,3.434c-1.26-0.195-2.542-0.295-3.827-0.295c-6.81,0-13.352,2.791-18.422,7.858l-0.533,0.536
		c-2.459-0.668-5-1.092-7.489-1.092c-7.829,0-14.945,2.442-20.749,6.781c-5.562-4.973-12.248-7.59-19.448-7.59
		c-10.183,0-19.46,5.152-27.16,11.905c-2.174-2.155-5.062-4.284-8.885-6.236c-6.392-3.263-13.85-5.21-19.951-5.21
		c-0.887,0-1.73,0.044-2.54,0.117c3.994-5.045,6.399-11.404,6.399-18.324c0-16.32-13.277-29.597-29.598-29.597
		c-16.319,0-29.597,13.276-29.597,29.597c0,7.833,3.08,14.945,8.066,20.244c-1.98,0.938-3.719,2.149-5.204,3.633
		c-0.099,0.099-0.195,0.198-0.292,0.295c-4.257-2.564-9.443-4.011-15.212-4.011c-6.929,0-14.841,4.788-22.236,11.066v-35.082
		c0-15.665-18.451-22.962-30.921-22.962c-8.775,0-14.034,3.417-16.9,6.284l-4.236,4.236v130.994
		c0,19.427,19.315,31.355,33.163,31.355c10.731,0,18.833-7.494,18.895-17.451c1.396,1.737,3.067,3.601,5.065,5.586
		c12.177,12.099,19.787,12.099,22.288,12.099c2.691,0,7.141,0,16.915-7.792c6.459,4.747,14.116,7.581,21.5,7.581
		c2.181,0,4.403-0.372,6.738-1.16c-0.028,2.193-0.055,4.223-0.079,6.059c-0.07,5.406-0.119,9.176-0.119,10.589
		c0,18.523,19.988,27.152,33.498,27.152c4.606,0,19.641-2.158,19.641-29.924v-18.514c4.219,1.182,8.912,1.898,14.088,1.898
		c8.244,0,15.944-3.086,22.436-8.957c6.447,8.402,16.414,13.067,28.441,13.067c15.822,0,28.448-6.222,36.372-17.062
		c6.399,10.686,19.182,16.851,29.138,16.851c5.342,0,10.032-1.856,13.403-4.95c5.746,3.363,12.278,5.161,19.363,5.161
		c4.934,0,15.839-1.455,30.131-11.932c7.109,8.27,18.026,11.932,25.083,11.932c3.465,0,20.748-1.386,20.748-28.752v-11.697
		c2.304,2.024,5.277,3.997,9.101,5.789c3.749,1.758,7.844,3.125,11.856,4.002c0.54,3.362,1.408,6.599,2.625,9.536
		c5.56,13.423,17.608,21.122,33.058,21.122c27.72,0,45.631-19.101,45.631-48.663C934.994,197.5,931.373,188.38,924.795,181.908z"/>
	<path fill="#E28B7D" d="M627.74,316.629c-5.434,0-9.396-2.035-11.885-6.105h-0.228l0.098,2.729c0.086,1.602,0.13,3.354,0.13,5.26
		v13.444h-3.215V280.68h2.728l0.617,5.034h0.194c2.425-3.811,6.3-5.716,11.626-5.716c4.763,0,8.395,1.564,10.895,4.693
		c2.501,3.128,3.751,7.681,3.751,13.654c0,5.803-1.314,10.301-3.945,13.493C635.876,315.034,632.287,316.629,627.74,316.629z
		 M627.676,313.773c3.615,0,6.413-1.344,8.395-4.028c1.98-2.684,2.972-6.44,2.972-11.269c0-10.369-3.746-15.554-11.236-15.554
		c-4.113,0-7.134,1.131-9.061,3.393c-1.927,2.263-2.89,5.948-2.89,11.057v1.04c0,5.521,0.926,9.462,2.776,11.82
		C620.482,312.592,623.497,313.773,627.676,313.773z"/>
	<path fill="#E28B7D" d="M677.562,298.282c0,5.76-1.396,10.257-4.188,13.492c-2.793,3.237-6.646,4.855-11.562,4.855
		c-3.096,0-5.823-0.747-8.183-2.241c-2.36-1.493-4.168-3.637-5.424-6.429c-1.256-2.793-1.884-6.019-1.884-9.678
		c0-5.759,1.396-10.245,4.189-13.46s6.625-4.823,11.496-4.823c4.849,0,8.654,1.63,11.414,4.888
		C676.182,288.145,677.562,292.61,677.562,298.282z M649.699,298.282c0,4.85,1.065,8.634,3.198,11.35
		c2.133,2.718,5.147,4.076,9.044,4.076c3.897,0,6.912-1.358,9.044-4.076c2.133-2.716,3.199-6.5,3.199-11.35
		c0-4.871-1.077-8.648-3.231-11.333s-5.18-4.026-9.076-4.026s-6.901,1.336-9.012,4.01
		C650.755,289.607,649.699,293.389,649.699,298.282z"/>
	<path fill="#E28B7D" d="M707.983,315.98v-22.895c0-3.549-0.747-6.131-2.24-7.744c-1.494-1.612-3.811-2.419-6.95-2.419
		c-4.221,0-7.312,1.066-9.271,3.197c-1.96,2.133-2.939,5.592-2.939,10.377v19.483h-3.215v-35.3h2.728l0.617,4.839h0.195
		c2.294-3.681,6.375-5.521,12.242-5.521c8.011,0,12.016,4.298,12.016,12.892v23.09H707.983z"/>
	<path fill="#E28B7D" d="M730.315,313.848c2.035,0,3.811-0.174,5.326-0.521v2.598c-1.559,0.52-3.356,0.779-5.391,0.779
		c-3.117,0-5.418-0.833-6.901-2.501c-1.482-1.667-2.224-4.286-2.224-7.858v-22.796h-5.229v-1.884l5.229-1.462l1.623-7.988h1.656
		v8.54h10.359v2.794h-10.359v22.341c0,2.708,0.477,4.709,1.429,6.009C726.787,313.198,728.28,313.848,730.315,313.848z"/>
	<path fill="#E28B7D" d="M768.606,298.357c0,5.76-1.396,10.257-4.188,13.492c-2.793,3.237-6.646,4.855-11.561,4.855
		c-3.097,0-5.824-0.747-8.184-2.241c-2.36-1.493-4.168-3.637-5.423-6.429c-1.256-2.793-1.884-6.019-1.884-9.678
		c0-5.759,1.396-10.245,4.188-13.46c2.793-3.215,6.625-4.823,11.496-4.823c4.85,0,8.654,1.63,11.415,4.888
		C767.226,288.22,768.606,292.685,768.606,298.357z M740.743,298.357c0,4.85,1.066,8.634,3.199,11.35
		c2.132,2.718,5.146,4.076,9.044,4.076c3.896,0,6.911-1.358,9.044-4.076c2.132-2.716,3.198-6.5,3.198-11.35
		c0-4.871-1.077-8.648-3.231-11.333s-5.18-4.026-9.076-4.026s-6.9,1.336-9.012,4.01
		C741.799,289.682,740.743,293.464,740.743,298.357z"/>
	<path fill="#E28B7D" d="M804.924,310.459c1.862,0,3.724-0.293,5.586-0.877v5.748c-0.844,0.368-1.932,0.677-3.264,0.925
		c-1.331,0.249-2.711,0.374-4.141,0.374c-7.23,0-10.846-3.811-10.846-11.43v-19.355h-4.903v-3.377l5.261-2.794l2.598-7.599h4.709
		v7.988h10.229v5.781h-10.229v19.226c0,1.84,0.459,3.197,1.38,4.074C802.224,310.021,803.431,310.459,804.924,310.459z"/>
	<path fill="#E28B7D" d="M833.371,316.629c-5.585,0-9.953-1.628-13.103-4.888c-3.15-3.257-4.726-7.744-4.726-13.46
		c0-5.867,1.462-10.479,4.384-13.834c2.923-3.354,6.938-5.032,12.049-5.032c4.74,0,8.485,1.438,11.235,4.318
		c2.749,2.879,4.124,6.841,4.124,11.886v4.124h-23.933c0.107,3.485,1.05,6.165,2.825,8.036c1.774,1.873,4.274,2.81,7.501,2.81
		c2.121,0,4.097-0.199,5.927-0.601c1.829-0.401,3.794-1.066,5.894-1.997v6.202c-1.862,0.888-3.745,1.517-5.65,1.884
		S835.817,316.629,833.371,316.629z M831.976,285.195c-2.426,0-4.368,0.769-5.83,2.307c-1.461,1.536-2.332,3.777-2.614,6.721h16.303
		c-0.044-2.966-0.759-5.211-2.144-6.738C836.305,285.958,834.399,285.195,831.976,285.195z"/>
	<path fill="#E28B7D" d="M870.489,316.629c-5.435,0-9.563-1.586-12.389-4.758c-2.825-3.171-4.238-7.723-4.238-13.655
		c0-6.039,1.479-10.683,4.434-13.932c2.954-3.247,7.225-4.869,12.811-4.869c3.788,0,7.197,0.703,10.229,2.109l-2.306,6.139
		c-3.227-1.256-5.89-1.884-7.989-1.884c-6.213,0-9.319,4.124-9.319,12.372c0,4.026,0.773,7.052,2.321,9.077
		c1.548,2.024,3.816,3.035,6.804,3.035c3.398,0,6.613-0.843,9.645-2.532v6.656c-1.364,0.803-2.82,1.376-4.368,1.722
		C874.575,316.457,872.697,316.629,870.489,316.629z"/>
	<path fill="#E28B7D" d="M920.531,315.98h-7.663v-22.082c0-2.771-0.559-4.839-1.673-6.202c-1.115-1.364-2.885-2.047-5.31-2.047
		c-3.204,0-5.559,0.958-7.062,2.875c-1.506,1.915-2.258,5.125-2.258,9.628v17.828h-7.631v-50.529h7.631v12.827
		c0,2.057-0.13,4.255-0.39,6.592h0.487c1.039-1.731,2.484-3.073,4.336-4.026c1.851-0.952,4.01-1.428,6.479-1.428
		c8.703,0,13.054,4.384,13.054,13.15V315.98z"/>
	<path fill="#F6F7F2" d="M895.364,185.71c-11.907,0-13.427-11.919-13.427-17.62c0-8.478,7.884-19.13,18.893-10.656
		c-0.003,5.689,1.077,11.401,4.611,14.936c2.165,2.165,7.285,1.314,9.25-0.817c0.46-0.499,0.713-1.146,0.717-1.824
		c0.054-11.207,0.948-24.855,2.728-29.238c0.479-1.182,0.118-2.546-0.943-3.253c-2.77-1.845-8.6-2.892-13.586,2.095
		c0,0-1.375,4.473-2.19,10.287c-3.857-2.785-11.546-6.61-16.059-6.61c-9.511,0-15.986,5.888-19.195,13.336
		c-0.012-1.47-0.02-2.615-0.02-3.34c0-7.481-10.175-9.551-16.759-9.551c-3.577,0-21.057,20.708-31.124,36.43
		c0-14.349,0-26.895,0-29.332c0-5.745-18.517-10.154-25.736-2.934c2.984,2.984,2.713,32.152,2.253,54.361
		c-8.525,13.005-25.006,29.582-35.472,29.582c-6.242-6.242-9.104-12.827-9.724-19.357c23.346-1.136,39.65-20.029,39.65-49.324
		c0-11.747-7.847-13.521-12.681-11.72c-2.552-3.987-6.771-7.433-11.859-7.433c-20.376,0-32.501,18.45-36.263,39.345
		c0-15.792,0-32.401,0-46.156c33.039-9.617,76.116-19.413,107.032-19.413c12.467,0,11.662-12.551,11.662-19.145
		s-3.217-13.833-6.837-13.833c-21.164,0-71.909,15.144-111.857,31.866c0-5.584,0-9.285,0-10.256c0-6.229-18.02-11.567-23.136-6.451
		c0,0,0,11.333,0,27.208c-7.271,3.621-13.64,7.183-18.722,10.552c-0.082-0.072-0.163-0.145-0.256-0.207
		c-2.771-1.845-8.6-2.892-13.587,2.095c0,0-1.374,4.473-2.19,10.287c-3.857-2.785-11.545-6.61-16.059-6.61
		c-12.211,0-19.423,9.703-21.131,19.957c-1.836-6.636-4.639-12.282-8.462-16.105c-15.812-15.812-39.198,12.516-45.829,26.808
		c0-10.556,0-18.151,0-19.825c0-6.709-21.004-14.585-25.963-9.626c2.052,2.052,2.44,33.995,2.342,65.447
		c-8.16,9.409-18.031,17.256-19.085,16.202c-1.826-1.826,2.662-65.342,2.662-74.47s-19.245-11.03-22.973-7.303
		c-3.156,3.157-5.933,59.409-5.933,71.732c0,1.513,0.124,2.965,0.353,4.356c-3.289,3.639-6.624,6.282-9.474,6.282
		c-9.342,0,2.002-64.725,2.002-70.73s-4.227-11.121-12.679-11.121c-6.681,0-25.152,17.739-36.699,34.232c0-33.57,0-69.364,0-72.711
		c0-6.228-18.016-11.566-23.132-6.45c0,0,0,110.544,0,125.001c0,14.458,23.132,21.353,23.132,13.791c0-2.974,0-23.101,0-46.812
		c8.399-12.138,21.899-25.031,25.356-25.031c0,6.45-3.56,50.045-3.56,55.383c0,5.339,14.458,19.796,20.019,19.796
		c2.713,0,10.509-6.357,17.783-13.642c4.745,8.679,13.962,13.431,20.631,13.431c4.866,0,13.927-7.897,21.505-15.478
		c-0.174,22.522-0.501,41.815-0.501,45.428c0,9.335,13.783,12.689,19.034,12.689c3.685,0,5.179-9.043,5.179-15.461
		c0-2.688,0-22.114,0-44.276c4.571,5.274,13.876,13.199,28.551,13.199c19.448,0,29.561-31.133,28.278-57.965
		c3.619,6.351,11.523,12.222,28.491,12.649c1.467,0.037,2.817,0.805,3.606,2.042c7.519,11.783,3.261,41.365-9.831,41.365
		c-13.934,0-5.447-27.168-0.887-31.728c1.837-1.837-10.641-8.994-16.847-2.787c-4.75,4.75-10.287,40.534,18.066,40.534
		c21.736,0,31.167-15.073,31.167-34.201c0-12.033-7.477-21.901-25.167-21.901c-11.906,0-13.427-11.919-13.427-17.62
		c0-8.478,7.885-19.13,18.894-10.656c-0.003,5.689,1.076,11.401,4.611,14.936c2.165,2.165,7.284,1.314,9.249-0.817
		c0.46-0.499,0.714-1.146,0.717-1.824c0.028-5.959,0.298-12.597,0.809-18.176c4.488-1.957,11.388-4.542,19.954-7.418
		c0,32.5,0,72.291,0,80.571c0,14.459,23.136,21.355,23.136,13.792c0-2.104,0-12.8,0-27.271c3.232,17.03,12.647,30.586,28.333,30.586
		c12.319,0,28.089-13.297,37.664-24.161c-0.064,3.017-0.106,5.484-0.106,7.178c0,13.168,13.766,16.983,17.656,16.983
		s6.284-5.013,6.284-14.29c0-4.309,0-19.979,0-36.103c6.938-11.632,19.809-27.64,23.044-27.64c0,7.781-1.796,30.525-1.796,36.51
		c0,5.985,14.664,11.971,23.642,11.971c2.261,0,2.904-17.479,3.048-33.593c3.33,6.747,11.14,13.269,29.059,13.72
		c1.467,0.037,2.817,0.805,3.606,2.042c7.518,11.783,3.26,41.365-9.831,41.365c-13.935,0-5.447-27.168-0.887-31.728
		c1.836-1.837-10.641-8.994-16.848-2.787c-4.75,4.75-10.286,40.534,18.066,40.534c21.737,0,31.168-15.073,31.168-34.201
		C920.531,195.578,913.055,185.71,895.364,185.71z M603.158,228.016c-11.668,0-19.849-9.783-24.101-16.526
		c0-7.331,0-14.662,0-21.529c4.328-12.596,18.737-33.491,30.384-33.491C625.732,156.47,616.981,228.016,603.158,228.016z
		 M776.733,163.474c2.106,13.47-12.089,38.138-27.088,42.431C751.802,186.511,770.99,168.775,776.733,163.474z"/>
	<circle fill="#F6F7F2" cx="532.549" cy="109.989" r="15.134"/>
	<path fill="#3F3F3F" d="M273.874,64.42c-0.466,0-0.935-0.162-1.314-0.493c-5.722-4.992-11.896-9.487-18.351-13.36
		c-0.613-0.342-1.029-0.996-1.029-1.747c0-1.104,0.89-2,1.995-2h0.564l0.475,0.285c6.676,4.002,13.061,8.647,18.977,13.808
		c0.832,0.727,0.918,1.99,0.192,2.822C274.986,64.188,274.431,64.42,273.874,64.42z"/>
	<path fill="#EB837C" d="M309.475,177.11c0,8.69-2.95,16.8-8.08,23.22c-5.13,6.41-12.35,11.15-20.82,13.07l-1.24,0.18l-0.62,0.04
		v0.94c0,1.68-0.46,3.31-2.15,3.31h-8.12c1.07-14.439,1.81-30.12,1.81-45.979c-0.35-8.54,0.26-21.32,1.2-34.93h5.11
		c1.69,0,2.15,1.11,2.15,2.8v0.84l0.63,0.04l1.03,0.18C297.324,144.66,309.475,159.73,309.475,177.11z"/>
	<path fill="#EB837C" d="M109.895,217.87h-9.57c-1.69,0-2.14-1.63-2.14-3.31v-0.94l-0.63-0.04l-1.24-0.18
		c-8.47-1.92-15.69-6.66-20.82-13.07c-5.13-6.419-8.08-14.53-8.08-23.22c0-17.38,12.15-32.45,29.1-36.29l1.03-0.18l0.64-0.04v-0.84
		c0-1.69,0.45-2.8,2.14-2.8h5.91l0.33,0.4c1.14,12.78,1.97,25.53,1.57,35.32C108.134,188.3,108.855,203.7,109.895,217.87z"/>
	<path fill="#69C4A0" d="M279.565,62.431c-5.928,0.733-12.027,0.267-15.701-3.408c-8.99-8.99-28.887-40.456-63.336-40.456
		c-34.449,0-56.57,14.318-69.889,34.712c-8.98,13.751-28.1,22.651-28.1,37.043c0,15.983,6.592,58.387,5.595,82.631
		c0,55.599,9.126,108.341,9.126,113.335c0,9.823,49.709,52.193,72.166,52.193c22.457,0,71.704-39.374,71.704-52.193
		c0-4.994,9.126-58.557,9.126-114.156c-0.72-17.499,2.617-52.674,4.472-76.648l1.627-2.166c4.686-5.993,7.738-11.874,11.541-18.849
		C291.122,68.554,286.251,61.604,279.565,62.431"/>
	<path fill="#F6F7F2" d="M263.861,159.175c0,14.345-1.758,63.526-3.846,87.34c-0.769,0.06-141.087,0.02-142.196-0.13
		c-2.068-22.676-3.796-72.883-3.796-87.108c0-13.086,3.536-37.531,4.935-46.671c0.31-2.027,2.108-3.511,4.166-3.382
		c1.778,0.11,4.125,0.237,6.882,0.397l0.19,0.004c1.358,0.08,2.807,0.167,4.335,0.256c3.976,0.23,8.481,0.488,13.166,0.758
		c1.378,0.08,2.777,0.159,4.175,0.239c0.37,0.02,0.739,0.04,1.109,0.06l0.23,0.01c15.233,0.849,30.916,1.658,35.731,1.648
		c1.658,0,4.615-0.089,8.391-0.259c16.023-0.669,46.919-2.508,57.428-3.137c2.058-0.13,3.856,1.329,4.165,3.356
		c0.29,1.858,0.659,4.355,1.069,7.262C261.623,131.165,263.861,148.756,263.861,159.175"/>
	<g>
		<defs>
			<path id="SVGID_1_" d="M255.014,111.189c-0.084,0-0.169,0.003-0.253,0.008c-10.508,0.629-41.405,2.467-57.428,3.137
				c-3.776,0.17-6.733,0.26-8.391,0.26c-0.031,0-0.061,0-0.092,0c-4.921,0-20.503-0.804-35.639-1.648l-0.23-0.01
				c-0.37-0.02-0.739-0.04-1.109-0.06c17.864,16.601,37.568,28.122,59.323,28.122c15.238,0,31.485-5.657,48.8-19.182
				c-0.41-2.907-0.779-5.404-1.069-7.262C258.629,112.609,256.964,111.189,255.014,111.189"/>
		</defs>
		<clipPath id="SVGID_2_">
			<use xlink:href="#SVGID_1_"  overflow="visible"/>
		</clipPath>
		<rect x="151.873" y="111.189" clip-path="url(#SVGID_2_)" fill="#EBECE8" width="108.123" height="29.809"/>
	</g>
	<path fill="#69C4A0" d="M141.294,99.959c34.745,34.745,76.667,51.943,127.362,1.249L141.294,99.959z"/>
	<path fill="#62B592" d="M183.68,325.796c-0.277,0-0.555,0-0.834-0.002c-15.248-0.069-28.727-2.123-28.861-2.144
		c-0.819-0.126-1.38-0.893-1.254-1.711c0.126-0.818,0.897-1.376,1.711-1.254c0.526,0.08,52.738,7.928,67.906-7.24
		c10.252-10.253,0.793-36.705,0.697-36.971c-0.283-0.778,0.119-1.64,0.897-1.922c0.778-0.288,1.639,0.117,1.922,0.896
		c0.422,1.159,10.194,28.528-1.395,40.117C217.679,322.356,203.958,325.796,183.68,325.796"/>
	<path fill="#62B592" d="M167.515,311.115c-15.89,0-31.019-2.033-32.19-2.193c-0.821-0.113-1.395-0.87-1.282-1.69
		c0.112-0.822,0.87-1.385,1.69-1.282c0.133,0.019,13.488,1.833,28.157,2.12c19.093,0.36,31.703-1.943,36.46-6.7
		c11.267-11.268-3.497-30.26-3.647-30.45c-0.513-0.65-0.403-1.594,0.247-2.107c0.65-0.513,1.593-0.402,2.107,0.246
		c0.683,0.862,16.571,21.278,3.416,34.433C196.464,309.497,181.687,311.115,167.515,311.115"/>
	<path fill="#62B592" d="M162.977,295.265c-4.835,0-10.631-0.326-17.421-0.976c-13.719-1.312-26.503-3.542-26.63-3.564
		c-0.816-0.144-1.361-0.921-1.218-1.736c0.144-0.816,0.924-1.36,1.737-1.219c13.938,2.445,51.633,7.566,58.571,1.982
		c0.761-0.611,1.123-1.343,1.142-2.302c0.085-4.367-6.698-11.247-9.319-13.529c-0.624-0.544-0.69-1.492-0.147-2.116
		s1.49-0.691,2.116-0.147c1.073,0.933,10.475,9.304,10.35,15.85c-0.035,1.836-0.817,3.421-2.261,4.583
		C177.26,294.209,171.676,295.265,162.977,295.265"/>
	<path fill="#62B592" d="M255.131,298.725c-0.604,0-1.174-0.367-1.402-0.966c-0.772-2.029-4.848-12.692-9.198-23.431
		c-0.311-0.768,0.059-1.643,0.827-1.954c0.765-0.309,1.642,0.06,1.953,0.827c4.362,10.767,8.447,21.456,9.222,23.489
		c0.295,0.774-0.094,1.641-0.868,1.936C255.489,298.694,255.308,298.725,255.131,298.725"/>
	<path fill="#62B592" d="M277.304,81.118c-6.714,0-15.727-2.195-26.127-6.503c-28.301-11.723-56.951-34.739-56.951-56.047
		c0-0.829,0.671-1.5,1.5-1.5s1.5,0.671,1.5,1.5c0,19.78,28.388,42.212,55.099,53.276c15.963,6.612,28.998,8.166,33.208,3.957
		c0.586-0.586,1.535-0.586,2.121,0c0.586,0.585,0.586,1.536,0,2.121C285.513,80.061,281.961,81.118,277.304,81.118z"/>
	<path fill="#62B592" d="M265.105,99.097c-4.633,0-10.006-0.654-14.907-1.586c-32.128-6.109-75.954-27.776-93.733-68.733
		c-0.33-0.76,0.019-1.643,0.779-1.973s1.643,0.019,1.973,0.779c17.312,39.882,60.133,61.008,91.541,66.98
		c12.561,2.39,21.033,1.738,22.91-0.14c0.586-0.586,1.535-0.586,2.121,0c0.586,0.585,0.586,1.535,0,2.121
		C273.946,98.387,269.927,99.097,265.105,99.097z"/>
	<path fill="#62B592" d="M232.724,113.244c-6.983,0-14.394-0.659-21.881-2.028c-17.715-3.239-61.029-15.452-80.581-58.801
		c-0.341-0.755-0.005-1.644,0.75-1.984s1.644-0.005,1.984,0.75c18.968,42.054,61.137,53.93,78.386,57.083
		c24.572,4.491,48.099,1.265,57.212-7.848c0.586-0.586,1.535-0.586,2.121,0c0.586,0.585,0.586,1.536,0,2.121
		C263.817,109.436,249.509,113.244,232.724,113.244z"/>
	<path fill="#E1BB7A" d="M111.868,240.752c-0.35,0.143-0.641,0.444-0.738,0.894c-1.416,6.561-1.9,21.534,4.637,32.142
		C114.708,265.713,113.237,254.276,111.868,240.752 M266.481,240.667c-1.264,12.548-2.61,23.312-3.637,31.267
		c5.744-10.437,5.96-24.139,4.617-30.322C267.346,241.067,266.935,240.746,266.481,240.667"/>
	<path fill="#62B896" d="M266.258,240.648c-0.478,0-0.959,0.263-1.164,0.809c-0.781,2.071-1.981,4.636-3.781,7.061
		c-2.893,3.904-7.323,7.455-13.965,8.047c-0.633,0.05-1.282,0.082-1.956,0.082c-5.471,0-13.087-6.819-23.474-10.105
		c-6.498-0.001-13.474-0.003-20.617-0.006c-0.867,0.305-1.694,0.638-2.479,0.988l-19.874-0.354
		c-0.545-0.227-1.109-0.444-1.691-0.649c-7.07-0.005-13.984-0.012-20.448-0.02c-10.452,3.271-18.106,10.145-23.594,10.145
		c-1.003,0-1.957-0.065-2.869-0.188c-7.168-0.954-11.622-5.417-14.31-9.814c-1.134-1.833-1.948-3.641-2.523-5.187
		c-0.207-0.54-0.682-0.8-1.157-0.8c-0.167,0-0.334,0.032-0.489,0.095c1.368,13.524,2.84,24.961,3.899,33.036
		c1.128,1.83,2.465,3.531,4.042,5.036c5.671,5.416,14.466,9.189,27.822,9.189c13.433,0,23.054-2.658,29.633-5.658
		c-2.187-3.452-5.705-6.935-7.427-8.434c-0.624-0.544-0.69-1.492-0.147-2.116c0.297-0.341,0.714-0.515,1.133-0.515
		c0.349,0,0.699,0.121,0.983,0.368c0.732,0.637,5.346,4.74,8.161,9.362c4.813-2.574,7.541-5.149,8.645-6.33
		c0.16-0.168,0.374-0.253,0.587-0.253c0.213,0,0.424,0.084,0.58,0.253c1.441,1.512,5.61,5.344,13.453,8.513
		c-2.231-6.754-6.451-12.182-6.531-12.283c-0.513-0.65-0.403-1.594,0.247-2.107c0.275-0.217,0.603-0.323,0.929-0.323
		c0.443,0,0.882,0.195,1.177,0.569c0.387,0.489,5.669,7.272,7.764,15.452c5.099,1.67,11.446,2.983,19.215,3.379
		c-1.192-6.387-2.949-11.3-2.991-11.413c-0.283-0.778,0.119-1.64,0.897-1.922c0.17-0.063,0.344-0.093,0.516-0.093
		c0.612,0,1.185,0.381,1.407,0.989c0.18,0.495,2.064,5.765,3.263,12.546c0.606,0.011,1.22,0.017,1.842,0.017
		c7.117,0,12.947-1.236,17.701-3.308c-1.275-3.24-2.691-6.803-4.138-10.375c-0.311-0.768,0.059-1.643,0.827-1.954
		c0.184-0.074,0.374-0.109,0.561-0.109c0.593,0,1.156,0.353,1.392,0.937c1.417,3.497,2.805,6.987,4.059,10.174
		c2.461-1.356,4.587-2.955,6.418-4.725c2.03-1.961,3.698-4.248,5.057-6.716c1.026-7.956,2.373-18.72,3.637-31.267
		C266.408,240.654,266.333,240.648,266.258,240.648"/>
	<path fill="#E7E8E3" d="M167.433,244.81c-3.826,0-7.361,0.67-10.623,1.691c6.464,0.008,13.378,0.014,20.448,0.02
		C174.384,245.51,171.076,244.81,167.433,244.81 M211.167,244.81c-3.658,0-6.982,0.709-9.866,1.725
		c7.143,0.003,14.119,0.005,20.617,0.006C218.621,245.498,215.043,244.81,211.167,244.81"/>
	<path fill="#5CAA89" d="M224.457,274.46c-0.171,0-0.345,0.03-0.516,0.093c-0.778,0.282-1.18,1.144-0.897,1.922
		c0.041,0.114,1.799,5.027,2.991,11.413c1.006,0.051,2.037,0.087,3.092,0.107c-1.199-6.781-3.083-12.051-3.263-12.546
		C225.642,274.841,225.068,274.46,224.457,274.46"/>
	<path fill="#5CAA89" d="M197.878,268.488c-0.326,0-0.654,0.105-0.929,0.323c-0.649,0.514-0.76,1.457-0.247,2.107
		c0.08,0.101,4.3,5.529,6.531,12.283c1.12,0.452,2.314,0.891,3.586,1.307c-2.096-8.18-7.377-14.963-7.764-15.452
		C198.76,268.683,198.321,268.488,197.878,268.488"/>
	<path fill="#5CAA89" d="M170.825,271.289c-0.419,0-0.836,0.175-1.133,0.515c-0.544,0.624-0.478,1.572,0.147,2.116
		c1.722,1.499,5.24,4.982,7.427,8.434c0.967-0.441,1.866-0.888,2.703-1.336c-2.815-4.622-7.429-8.726-8.161-9.362
		C171.524,271.41,171.173,271.289,170.825,271.289"/>
	<path fill="#5CAA89" d="M245.918,272.265c-0.187,0-0.377,0.035-0.561,0.109c-0.768,0.312-1.138,1.187-0.827,1.954
		c1.447,3.572,2.863,7.135,4.138,10.375c0.942-0.411,1.842-0.854,2.701-1.328c-1.254-3.187-2.642-6.677-4.059-10.174
		C247.074,272.618,246.511,272.265,245.918,272.265"/>
	<path fill="#63BA95" d="M257.038,266.664c-5.696,5.507-14.252,9.362-26.819,9.362c-26.754,0-38.549-10.554-41.187-13.324
		c-0.312-0.337-0.847-0.337-1.167,0c-2.605,2.787-14.236,13.324-40.981,13.324c-13.356,0-22.151-3.773-27.822-9.189
		c-10.718-10.225-10.34-29.484-8.68-37.178c0.263-1.216,1.939-1.348,2.383-0.188c0.576,1.545,1.389,3.354,2.523,5.187
		c2.688,4.396,7.143,8.86,14.31,9.813c0.912,0.123,1.866,0.189,2.868,0.189c7.2,0,18.132-11.836,34.217-11.836
		c4.381,0,8.277,1.011,11.515,2.358l19.874,0.354c3.395-1.512,7.586-2.712,12.346-2.712c16.085,0,27.017,11.836,34.225,11.836
		c0.674,0,1.323-0.033,1.956-0.083c6.641-0.592,11.071-4.143,13.965-8.046c1.8-2.425,3-4.989,3.781-7.061
		c0.436-1.159,2.112-1.044,2.367,0.156C268.373,237.27,267.649,256.415,257.038,266.664z"/>
	<path fill="#F6F7F2" d="M197.08,222.925c1.414,5.477,2.604,10.451,2.604,11.669c0,2.997-5.244,7.492-11.238,7.492
		s-11.238-4.495-11.238-7.492c0-1.984,3.161-13.944,5.296-21.794"/>
	<path fill="#3F3F3F" d="M291.541,77.972c0.249-0.451,0.496-0.889,0.746-1.349c2.25-4.125,2.167-8.99-0.221-13.012
		c-2.422-4.08-6.692-6.516-11.421-6.517c-0.561,0-1.13,0.035-1.693,0.105c-1.373,0.169-2.672,0.256-3.865,0.256
		c-2.486,0-5.839-0.388-7.688-2.237c-1.344-1.344-3.084-3.393-5.1-5.766c-10.732-12.636-30.709-36.155-61.772-36.155
		c-17.186,0-32.399,3.464-45.22,10.296c-7.894,4.206-14.898,9.696-20.936,16.383c-21.611,9.696-40.147,24.948-53.928,44.51
		c-15.714,22.306-24.02,48.566-24.02,75.943v27.53c0,1.104,0.896,2,2,2s2-0.896,2-2v-10.044h2.041
		c0.179,9.279,3.42,18.32,9.19,25.538c5.755,7.203,13.813,12.363,22.769,14.604c0.349,0.892,0.853,1.76,1.578,2.492
		c1.159,1.173,2.694,1.818,4.322,1.818h4.894c0.145,1.852,0.298,3.713,0.457,5.573c-0.072,0.217-0.132,0.438-0.181,0.664
		c-1.347,6.239-2.243,20.98,3.716,33.008c0.696,5.68,1.339,10.565,1.86,14.529c0.606,4.613,1.179,8.971,1.19,9.883
		c0,2.602,1.076,6.745,9.468,15.71c5.284,5.646,12.433,12.043,20.129,18.015c9.092,7.055,31.928,23.463,47.569,23.463
		c16.546,0,40.38-17.071,47.292-22.303c6.9-5.224,29.413-23.178,29.413-34.891c0.011-0.91,0.584-5.32,1.191-9.989
		c0.737-5.667,1.741-13.395,2.781-22.519c1.882-6.423,2.667-14.035,2.121-20.567c0.326-3.553,0.628-7.093,0.902-10.576h3.443
		c1.628,0,3.164-0.646,4.322-1.818c0.725-0.732,1.229-1.601,1.578-2.492c8.956-2.24,17.013-7.4,22.769-14.604
		c5.77-7.218,9.011-16.259,9.19-25.538h2.038v10.044c0,1.104,0.896,2,2,2s2-0.896,2-2v-27.53
		C320.464,130.405,310.221,101.307,291.541,77.972z M97.46,211.993l-0.774-0.076c-7.854-1.802-14.936-6.247-19.95-12.524
		c-5.024-6.274-7.791-14.188-7.791-22.282c0-16.485,11.7-31.109,27.834-34.807l0.681-0.07V211.993z M96.052,133.255
		c-0.834,0.843-1.383,1.886-1.74,2.954c-8.86,2.267-16.843,7.402-22.578,14.547c-5.529,6.888-8.758,15.394-9.222,24.159h-2.088
		V160.43c0-26.547,8.054-52.012,23.29-73.64c11.74-16.665,27.04-30.101,44.789-39.499c-0.699,0.978-1.386,1.968-2.05,2.985
		c-3.08,4.716-7.742,9.04-12.251,13.222c-8.192,7.598-16.663,15.455-16.663,26.555c0,6.741,1.083,17.547,2.336,30.059
		c0.372,3.712,0.752,7.508,1.119,11.343h-0.671C98.717,131.456,97.2,132.095,96.052,133.255z M100.549,215.87l-0.089-0.22v-77.336
		c0.041-0.14,0.084-0.265,0.129-0.354h4.522c0.877,9.886,1.959,24.02,1.523,34.72c0,13.483,0.548,28.01,1.618,43.189H100.549z
		 M111.684,230.828c0.66,1.63,1.439,3.179,2.322,4.615c3.696,6.033,9.018,9.669,15.394,10.515c1.042,0.136,2.044,0.202,3.064,0.202
		c3.269,0,6.975-2.022,11.266-4.365c6.102-3.33,13.696-7.475,22.954-7.475c3.114,0,6.231,0.548,9.279,1.617
		c0.054,0.188,0.105,0.381,0.186,0.538c0.682,1.578,1.726,2.709,2.858,3.664c1.141,0.949,2.414,1.692,3.76,2.266
		c2.671,1.159,5.794,1.501,8.665,0.813c2.865-0.659,5.487-2.104,7.502-4.308c0.515-0.538,0.943-1.192,1.325-1.885
		c0.134-0.28,0.253-0.581,0.356-0.895c3.234-1.198,6.528-1.812,9.8-1.812c9.255,0,16.849,4.144,22.951,7.473
		c4.295,2.343,8.005,4.367,11.279,4.367c0.68,0,1.359-0.027,2.093-0.086c6.125-0.544,11.182-3.455,15.031-8.648l0.17-0.246
		l0.11-0.16c1.307-1.828,2.444-3.897,3.373-6.185c0.849,4.885,0.711,13.096-1.592,20.88l-0.076,0.076l-0.035,0.308
		c-1.542,5.043-3.999,9.882-7.727,13.484c-6.131,5.937-14.803,8.947-25.777,8.947c-25.829,0-37.218-9.847-40.088-12.859
		c-0.871-0.923-2.481-0.926-3.357,0.005c-2.821,3.016-14.034,12.854-39.885,12.854c-11.671,0-20.682-2.952-26.784-8.774
		c-1.909-1.822-3.44-3.931-4.662-6.199l-0.113-0.212C110.049,249.354,110.699,236.35,111.684,230.828z M197.969,230.857l0.319,1.931
		c0.057,0.401,0.121,0.838,0.16,1.219l-0.199,1.354c-0.065,0.15-0.125,0.3-0.213,0.454c-0.295,0.441-0.622,0.885-1.041,1.287
		c-1.635,1.635-3.901,2.767-6.187,3.247c-2.297,0.469-4.686,0.229-6.871-0.715c-1.088-0.46-2.113-1.079-3.015-1.809
		c-0.904-0.717-1.675-1.617-2.054-2.472c-0.065-0.108-0.071-0.203-0.107-0.302l-0.053-0.228c0.003-0.116-0.005-0.231-0.029-0.343
		c0.004-0.093,0.012-0.193,0.028-0.319c0.076-0.574,0.188-1.216,0.31-1.848c0.243-1.271,0.521-2.556,0.81-3.837l3.491-15.456
		c0.092-0.421-0.148-0.856-0.567-0.99c-0.444-0.142-0.919,0.104-1.061,0.548c-1.633,5.044-3.163,10.113-4.518,15.257
		c-0.334,1.288-0.659,2.579-0.956,3.898c-0.079,0.347-0.154,0.694-0.224,1.051c-3.061-0.969-6.184-1.465-9.309-1.465
		c-10.024,0-17.99,4.348-24.391,7.842c-3.931,2.146-7.326,3.998-9.829,3.998c-0.889,0-1.764-0.058-2.673-0.177
		c-4.461-0.592-8.209-2.73-11.206-6.32c-1.8-25.914-3.061-65.665-3.061-77.513c0-12.846,3.442-36.709,4.923-46.374
		c0.193-1.267,1.288-2.166,2.589-2.079l4.547,0.27c5.2,0.31,12.381,0.737,20.033,1.17c1.214,0.071,2.441,0.14,3.673,0.209
		l2.528,0.143c0.654,0.537,1.31,1.07,1.966,1.602c5.114,4.067,10.527,7.798,16.285,10.972c5.748,3.186,11.9,5.707,18.298,7.395
		c6.393,1.704,13.077,2.435,19.704,2.041c6.627-0.365,13.174-1.773,19.384-4.014c6.205-2.264,12.099-5.283,17.617-8.828
		c3.673-2.368,7.167-4.978,10.544-7.724c1.559,10.291,4.748,32.863,4.748,45.246c0,12.42-1.311,50.729-3.058,76.521
		c-3.311,4.435-7.627,6.921-12.821,7.383c-0.639,0.051-1.242,0.075-1.841,0.075c-2.508,0-5.907-1.854-9.842-4.001
		c-6.401-3.492-14.367-7.839-24.388-7.839c-3.273,0-6.559,0.548-9.79,1.624c-0.044-0.194-0.09-0.389-0.138-0.589l-0.509-1.95
		c-0.729-2.569-1.517-5.101-2.392-7.61c-0.083-0.239-0.332-0.393-0.589-0.347c-0.285,0.051-0.475,0.323-0.424,0.608L197.969,230.857
		z M232.796,315.727c-17.099,12.943-33.718,20.983-43.372,20.983c-9.458,0-25.751-8.261-43.583-22.098
		c-16.725-12.979-27.077-24.946-27.077-28.593c0-1.256-0.474-4.852-1.258-10.808c-0.347-2.637-0.749-5.688-1.184-9.104
		c0.544,0.64,1.111,1.249,1.706,1.816c6.679,6.373,16.387,9.604,28.855,9.604c25.75,0,37.852-9.57,41.569-13.283
		c3.775,3.709,16.03,13.283,41.761,13.283c11.779,0,21.154-3.295,27.862-9.791c1.733-1.674,3.206-3.557,4.457-5.569
		c-0.625,5.104-1.201,9.543-1.67,13.148c-0.767,5.897-1.229,9.458-1.229,10.702C259.634,291.462,248.347,303.956,232.796,315.727z
		 M268.754,171.89c0,14.27-0.607,29.702-1.806,45.873c-0.213,2.992-0.458,6.093-0.747,9.489c-0.157-0.041-0.318-0.07-0.485-0.083
		c-1.212-0.079-2.338,0.619-2.776,1.771c-0.072,0.191-0.155,0.37-0.23,0.558c1.542-25.408,2.654-58.852,2.654-70.318
		c0-13.07-3.467-37.116-4.955-46.828c-0.03-0.212-0.086-0.418-0.141-0.625c0.786-0.669,1.576-1.333,2.348-2.016
		c1.204-1.1,2.434-2.173,3.616-3.295l3.496-3.416c1.11-1.062,2.152-2.203,3.149-3.381c-0.246,3.081-0.507,6.295-0.778,9.616
		c-0.74,9.067-1.506,18.443-2.142,27.621C268.843,153.005,268.45,164.485,268.754,171.89z M276.431,138.321v77.325l-0.091,0.224
		h-6.252c1.102-15.471,1.667-30.264,1.665-44.041c-0.295-7.216,0.077-18.309,1.138-33.869h3.409c0.046,0.091,0.09,0.217,0.132,0.359
		L276.431,138.321z M273.933,93.832c-0.069,0.092-0.123,0.19-0.167,0.292c-0.299,0.25-0.503,0.612-0.536,1.031l0,0.006
		c-1.669,2.107-3.408,4.114-5.385,5.929l-3.488,3.314c-1.178,1.087-2.401,2.123-3.598,3.187c-0.98,0.845-1.978,1.668-2.979,2.487
		c-0.149,0.089-0.283,0.197-0.389,0.325c-3.832,3.114-7.812,6.031-11.967,8.661c-5.377,3.417-11.082,6.298-17.041,8.438
		c-5.963,2.118-12.197,3.42-18.485,3.736c-12.614,0.776-25.2-2.849-36.333-8.918c-5.584-3.044-10.874-6.651-15.896-10.607
		c-5.069-3.926-9.57-8.458-15.019-12.111c-0.169-0.113-0.398-0.121-0.578,0c-0.236,0.16-0.298,0.48-0.139,0.717
		c2.284,3.383,5.094,6.271,8.101,8.953c-0.75-0.042-1.502-0.084-2.246-0.128c-7.652-0.433-14.83-0.86-20.028-1.17l-4.542-0.27
		c-2.841-0.174-5.308,1.807-5.738,4.62c-1.49,9.731-4.957,33.775-4.957,46.827c0,11.083,1.099,46.491,2.711,72.285
		c-0.389-0.806-0.747-1.639-1.068-2.497c-0.344-0.906-1.114-1.525-2.025-1.707c-0.275-3.181-0.531-6.36-0.751-9.471
		c-1.166-15.878-1.756-31.044-1.758-45.019c0.342-8.357-0.158-19.643-1.574-35.516c-0.016-0.177-0.033-0.354-0.049-0.531
		l-0.001-0.017c-0.521-5.771-1.095-11.496-1.651-17.037c-1.246-12.418-2.323-23.143-2.323-29.592
		c0-8.262,7.083-14.831,14.583-21.786c4.797-4.449,9.757-9.049,13.273-14.433c3.137-4.803,6.656-9.097,10.542-12.889l2.193-2.056
		c14.147-12.678,32.87-19.085,55.9-19.085c28.059,0,46.066,21.197,56.825,33.861c2.106,2.479,3.925,4.62,5.453,6.148
		c3.493,3.502,9.193,4.795,16.947,3.84c2.611-0.322,5.038,0.768,6.501,2.918c1.431,2.103,1.553,4.699,0.328,6.945
		c-0.063,0.116-0.125,0.224-0.188,0.339l-1.256,2.27C281.134,83.276,277.371,89.23,273.933,93.832z M300.163,199.392
		c-5.025,6.279-12.107,10.725-19.949,12.524l-0.783,0.077v-69.761l0.679,0.07c16.134,3.696,27.834,18.32,27.834,34.807
		C307.944,185.2,305.181,193.114,300.163,199.392z M316.464,174.915h-2.085c-0.464-8.766-3.693-17.271-9.222-24.159
		c-5.735-7.145-13.718-12.279-22.578-14.547c-0.357-1.068-0.905-2.111-1.74-2.954c-1.078-1.089-2.481-1.719-3.978-1.792
		c0.559-7.593,1.186-15.244,1.794-22.688c0.333-4.074,0.655-7.999,0.944-11.672c3.073-4.182,6.365-9.339,9.823-15.366
		c17.478,22.409,27.042,50.118,27.042,78.693V174.915z"/>
	<path fill="#3F3F3F" d="M228.542,219.51c14.601,0,23.763-5.932,28.007-18.133l0.039-0.13c1.073-4.292,2.606-16.684-3.107-22.398
		c-8.242-8.242-41.377-6.336-51.805-3.011c-2.396,0.764-4.17,2.646-5.273,5.594c-0.841,2.248-1.216,4.959-1.274,7.744l-4.465-1.984
		c-1.293-0.576-2.784-0.588-4.089-0.035l-3.833,1.625c-0.085-2.645-0.458-5.208-1.258-7.349c-1.103-2.948-2.877-4.83-5.273-5.594
		c-10.428-3.325-43.562-5.232-51.805,3.011c-5.714,5.714-4.18,18.106-3.106,22.399l0.039,0.129
		c4.244,12.201,13.405,18.133,28.007,18.133c15.095,0,24.212-4.407,30.486-14.737c1.299-2.138,2.593-7.318,2.875-12.718l5.04-2.136
		c0.542-0.231,1.162-0.226,1.701,0.014l5.446,2.419c0.101,0.045,0.205,0.076,0.309,0.098c0.323,5.256,1.588,10.235,2.855,12.321
		C204.329,215.103,213.447,219.51,228.542,219.51z M199.212,182.484c0.764-2.042,1.9-3.316,3.375-3.787
		c5.171-1.649,14.668-2.73,24.014-2.73c10.683,0,21.168,1.413,24.759,5.003c4.334,4.335,3.451,14.951,2.333,19.486
		c-1.41,4.052-5.69,16.054-25.151,16.054c-13.912,0-22.262-3.977-27.922-13.295C198.927,200.43,196.748,189.067,199.212,182.484z
		 M177.265,203.215c-5.66,9.318-14.011,13.295-27.922,13.295c-19.462,0-23.741-12.002-25.151-16.054
		c-1.117-4.535-2.001-15.15,2.333-19.486c6.733-6.731,37.691-5.807,48.773-2.273c1.475,0.47,2.61,1.745,3.375,3.787
		C181.136,189.068,178.957,200.43,177.265,203.215z"/>
</g>
</svg>
